<?xml version="1.0" encoding="utf-8"?>
<!-- Generator: Adobe Illustrator 23.0.1, SVG Export Plug-In . SVG Version: 6.00 Build 0)  -->
<svg version="1.1" id="Layer_1" xmlns="http://www.w3.org/2000/svg" xmlns:xlink="http://www.w3.org/1999/xlink" x="0px" y="0px"
	 viewBox="0 0 500 500" style="enable-background:new 0 0 500 500;" xml:space="preserve">
<style type="text/css">
	.st0{fill:#FFFFFF;}
</style>
<g>
	<path class="st0" d="M494,57.46c-0.98,22.49-13.86,38.51-34.34,43.99c-2,0.54-3,1.47-3.76,3.24
		c-17.49,40.68-35.01,81.35-52.55,122.01c-9.58,22.2-19.15,44.39-28.87,66.53c-1.35,3.08-1.41,4.47,2.27,5.94
		c16.57,6.63,32.96,13.66,49.43,20.55c12.58,5.26,15.84,13.49,10.3,25.93c-1.63,3.66-3.23,7.33-4.86,11
		c-4.74,10.63-13.33,14.01-24.28,9.44c-13.51-5.65-26.97-11.39-40.46-17.08c-14.26-6.01-28.55-11.94-42.78-18.03
		c-12.22-5.23-15.31-12.92-10.15-24.91c18.35-42.65,36.72-85.28,55.09-127.92c13.27-30.8,26.53-61.59,39.86-92.36
		c1-2.3,1.14-4.09-0.19-6.43c-10.67-18.82-6-42.34,10.99-56.08c16.53-13.37,40.92-13.42,57.34-0.04
		C488.43,32.51,493.87,44.56,494,57.46z M448.38,82.07c13.51,0.06,24.51-10.72,24.57-24.06c0.05-13.36-10.89-24.21-24.4-24.21
		c-13.4,0.01-24.53,10.71-24.59,23.64C423.9,71.21,434.61,82.01,448.38,82.07z"/>
	<path class="st0" d="M10.13,452.25c0.12-21.6,10.95-37.49,28.75-44.59c2.68-1.07,4.19-2.56,5.3-5.21
		c26.51-63.22,53.1-126.41,79.8-189.56c1.37-3.24,1.21-4.51-2.36-5.92c-16.85-6.64-33.57-13.62-50.33-20.5
		c-11.5-4.72-14.97-13.09-10.12-24.32c1.75-4.06,3.47-8.13,5.24-12.18c4.84-11.1,13-14.36,24.42-9.67
		c21.51,8.83,43.01,17.72,64.51,26.57c6.69,2.76,13.42,5.45,20.09,8.25c10.17,4.25,13.7,12.78,9.45,22.97
		c-6.53,15.68-13.12,31.34-19.71,47.01c-24.22,57.63-48.44,115.26-72.72,172.87c-0.98,2.32-1.18,4.07,0.42,6.38
		c13.33,19.21,9.87,43.22-8.36,59.23c-16.08,14.12-41.95,13.9-58.83-0.54C15.38,474.19,10.61,462.81,10.13,452.25z M55.43,473.37
		c13.93-0.01,24.54-10.84,24.49-25C79.87,435.68,68.39,424.9,55.03,425c-13.29,0.1-24.05,10.89-24.09,24.15
		C30.91,462.43,41.99,473.38,55.43,473.37z"/>
	<path class="st0" d="M490.11,448.45c0.1,23.29-17.57,42.68-41.86,44.9c-22.31,2.04-43.53-13.25-47.87-35.37
		c-0.48-2.44-1.52-3.78-3.86-4.75c-63.23-26.15-126.44-52.33-189.58-78.66c-3.53-1.47-4.61-0.61-5.92,2.54
		c-7.05,16.83-14.28,33.58-21.52,50.33c-4.4,10.17-13.24,13.58-23.68,9.26c-4.51-1.87-9.01-3.75-13.5-5.67
		c-9.96-4.27-13.46-12.61-9.23-22.71c8.92-21.29,18.02-42.51,27.04-63.76c2.81-6.62,5.6-13.24,8.43-19.85
		c4.87-11.34,13.2-14.7,24.7-9.94c74.94,31.07,149.87,62.15,224.79,93.27c2.58,1.07,4.7,1.42,7.47,0.13
		C455.34,394.17,489.96,415.83,490.11,448.45z M469.24,449.16c0.22-13.1-10.68-24.55-23.58-24.76
		c-14.02-0.23-25.06,10.1-25.35,23.71c-0.29,13.71,10.1,24.3,24.27,24.76C457.4,473.28,469.03,462.1,469.24,449.16z"/>
	<path class="st0" d="M55.97,7.01c21.95,0.57,38.75,14.24,43.78,35.88c0.58,2.48,1.64,3.66,3.92,4.62
		c39.77,16.79,79.5,33.65,119.23,50.54c22.71,9.66,45.43,19.3,68.05,29.17c3.72,1.62,5.31,1.42,6.97-2.59
		c6.79-16.33,14.01-32.48,20.99-48.73c1.74-4.06,4.12-7.48,8.01-9.79c5.12-3.05,10.42-2.46,15.61-0.46
		c5.07,1.95,10.04,4.18,14.95,6.52c9.11,4.34,12.46,12.55,8.52,21.69c-12.3,28.53-24.7,57.03-37.24,85.47
		c-4.24,9.63-13.13,12.7-23.35,8.37c-21.44-9.08-42.83-18.28-64.26-27.39c-53.43-22.71-106.88-45.39-160.29-68.15
		c-2.43-1.04-4.3-0.78-6.65,0.23c-32.35,13.91-66.45-9.87-64.08-44.61C11.68,24.97,32.56,6.4,55.97,7.01z M30.97,51.08
		C30.62,64.68,41.31,75.72,55.1,76c13.13,0.26,24.38-10.65,24.79-24.02c0.4-13-11.06-24.36-24.75-24.52
		C42.28,27.29,31.31,38.02,30.97,51.08z"/>
	<path class="st0" d="M196.42,17.33c1.29,0.44,3.18,0.94,4.96,1.7c32.58,13.8,65.15,27.62,97.71,41.47
		c8.11,3.45,9.48,6.94,6.02,14.85c-3.82,8.73-7.6,17.47-11.46,26.18c-3.02,6.81-6.68,8.28-13.65,5.32
		c-32.96-13.96-65.91-27.96-98.84-42c-6.88-2.93-8.38-6.76-5.45-13.49c4.19-9.62,8.48-19.2,12.66-28.82
		C189.79,19.25,192.35,17.75,196.42,17.33z"/>
	<path class="st0" d="M217.33,393.48c1.45,0.48,3.34,0.98,5.13,1.73c32.94,13.68,65.87,27.39,98.79,41.11
		c6.76,2.82,8.3,6.47,5.53,13.07c-3.85,9.17-7.73,18.32-11.65,27.46c-2.86,6.68-6.58,8.23-13.23,5.47
		c-33.21-13.76-66.42-27.53-99.61-41.34c-7.03-2.92-8.36-6.4-5.38-13.43c3.88-9.15,7.77-18.31,11.63-27.47
		C210.11,396.38,212.59,393.87,217.33,393.48z"/>
	<path class="st0" d="M53.41,330.5c-1.44,0.04-3.12-0.57-4.82-1.27c-9.27-3.85-18.56-7.63-27.82-11.49
		c-6.77-2.82-8.25-6.33-5.42-13.08c13.75-32.87,27.52-65.74,41.32-98.59c2.61-6.22,6.8-7.97,13.07-5.42
		c9.56,3.88,19.09,7.82,28.59,11.82c6.31,2.66,7.82,6.23,5.18,12.5c-13.91,33.1-27.89,66.18-41.82,99.28
		C60.19,327.79,58.19,330.54,53.41,330.5z"/>
	<path class="st0" d="M484.62,198.08c-0.52,3.73-2.44,7.15-3.96,10.69c-13.02,30.35-26.15,60.66-39.22,90.99
		c-3.4,7.89-6.64,9.24-14.68,5.87c-8.75-3.66-17.48-7.34-26.2-11.07c-7.22-3.09-8.77-6.68-5.77-13.65
		c13.91-32.37,27.84-64.74,41.81-97.09c3.31-7.66,6.77-8.97,14.44-5.74c9.25,3.89,18.52,7.75,27.76,11.66
		C482.41,191.26,484.83,193.69,484.62,198.08z"/>
</g>
</svg>
