<?xml version="1.0" standalone="no"?>
<!DOCTYPE svg PUBLIC "-//W3C//DTD SVG 20010904//EN"
 "http://www.w3.org/TR/2001/REC-SVG-20010904/DTD/svg10.dtd">
<svg version="1.0" xmlns="http://www.w3.org/2000/svg"
 width="1568.000000pt" height="326.000000pt" viewBox="0 0 1568.000000 326.000000"
 preserveAspectRatio="xMidYMid meet">

<g transform="translate(0.000000,326.000000) scale(0.100000,-0.100000)"
fill="#000000" stroke="none">
<path d="M0 2431 c0 -543 3 -832 10 -836 14 -8 14 -752 0 -760 -6 -4 -10 -155
-10 -421 l0 -414 7840 0 7840 0 0 1630 0 1630 -7840 0 -7840 0 0 -829z m550
582 c63 -32 104 -80 128 -148 l17 -48 475 -204 c261 -112 505 -217 541 -233
l66 -28 73 169 c93 217 111 229 238 169 72 -34 98 -74 83 -126 -8 -26 -119
-288 -195 -460 -30 -67 -71 -100 -111 -90 -19 5 -554 234 -1168 499 -127 55
-128 56 -169 41 -91 -32 -207 -5 -270 62 -41 45 -68 112 -68 174 0 185 196
306 360 223z m2195 -33 c119 -53 174 -213 116 -333 -27 -56 -90 -113 -142
-129 -43 -12 -8 60 -294 -613 -86 -203 -170 -399 -185 -435 l-29 -65 162 -67
c171 -72 207 -98 207 -147 0 -37 -43 -134 -71 -160 -13 -12 -35 -21 -51 -21
-23 0 -258 94 -504 201 -50 21 -84 59 -84 93 0 17 48 133 369 886 l182 424
-22 50 c-17 39 -20 63 -16 106 11 121 85 203 212 234 32 7 107 -4 150 -24z
m-1210 -127 c237 -102 297 -131 301 -148 6 -26 -73 -213 -97 -228 -13 -8 -85
19 -320 120 -167 72 -308 137 -313 146 -7 11 1 41 28 105 46 109 61 132 86
132 11 0 152 -57 315 -127z m2644 -72 c57 -41 66 -70 66 -221 0 -115 -3 -141
-20 -174 -33 -66 -69 -81 -202 -85 -13 -1 -32 -10 -43 -21 -17 -17 -20 -33
-20 -110 l0 -89 118 2 c102 2 121 -1 152 -18 64 -38 75 -72 75 -225 0 -219
-28 -249 -232 -250 l-112 0 -3 -447 c-3 -425 -4 -450 -23 -488 -29 -57 -78
-79 -181 -79 -129 0 -179 41 -194 160 -5 38 -9 245 -10 460 l0 391 -59 6 c-77
7 -99 20 -124 75 -17 39 -21 67 -21 162 -1 178 36 239 146 243 l53 2 7 120
c10 157 29 241 80 344 92 186 238 275 439 267 60 -2 83 -7 108 -25z m1711 1
c19 -9 44 -33 55 -52 20 -34 20 -54 25 -833 l5 -799 24 -19 c15 -12 39 -19 66
-19 53 0 98 -34 116 -88 17 -50 16 -246 -1 -306 -20 -71 -49 -86 -171 -86
-213 0 -330 51 -380 167 -10 24 -26 80 -36 126 -16 75 -18 156 -18 952 0 825
1 872 18 907 19 37 59 60 127 72 42 7 133 -5 170 -22z m6748 -2 c65 -29 83
-78 83 -223 1 -137 -11 -187 -51 -221 -53 -44 -222 -50 -277 -10 -55 40 -68
85 -68 229 0 102 4 137 17 160 35 65 74 83 183 84 49 0 83 -5 113 -19z
m-11769 -585 c265 -109 301 -131 301 -181 0 -14 -119 -313 -265 -664 l-266
-638 26 -47 c19 -37 25 -63 25 -109 -1 -226 -251 -337 -422 -187 -127 111 -88
345 69 410 36 15 17 -27 220 466 91 220 190 458 219 529 30 71 53 130 52 131
-2 2 -70 31 -153 65 -82 34 -162 70 -176 81 -35 25 -43 64 -25 117 37 104 60
130 115 131 13 1 139 -46 280 -104z m13895 -85 c128 -32 213 -88 321 -211 64
-73 134 -208 162 -314 26 -100 26 -391 0 -485 -65 -232 -201 -412 -372 -491
-108 -49 -171 -63 -261 -55 -197 16 -367 131 -483 325 -90 149 -121 268 -121
461 0 263 80 463 247 621 91 86 189 136 318 163 48 9 117 5 189 -14z m-6561
-5 c187 -49 321 -199 378 -426 18 -69 21 -103 17 -194 -6 -126 -31 -197 -89
-252 -64 -61 -79 -63 -395 -63 l-286 0 6 -32 c16 -81 131 -158 235 -158 74 0
178 23 232 51 24 12 61 22 82 23 34 1 44 -5 77 -41 43 -49 80 -151 80 -221 -1
-165 -167 -252 -478 -252 -265 1 -450 117 -567 355 -65 131 -87 223 -92 388
-10 286 51 483 203 646 81 88 207 161 319 184 50 11 225 6 278 -8z m1877 5
c22 0 93 -77 218 -235 74 -93 138 -173 142 -178 3 -4 60 62 125 145 204 260
242 293 308 264 88 -40 186 -183 187 -272 0 -60 -36 -119 -190 -314 -74 -94
-136 -175 -138 -180 -2 -4 60 -88 138 -186 78 -98 152 -199 166 -225 46 -91
24 -178 -72 -287 -49 -56 -89 -82 -125 -82 -44 0 -100 55 -245 237 -119 149
-149 182 -159 171 -7 -7 -76 -92 -153 -188 -142 -177 -188 -220 -234 -220 -78
0 -218 178 -218 277 0 65 33 120 190 317 77 98 140 180 140 184 -1 4 -64 86
-140 182 -77 96 -151 197 -165 224 -48 95 -25 179 77 291 53 58 101 88 126 80
8 -3 18 -5 22 -5z m-7355 -64 c88 -38 100 -46 103 -70 2 -17 -39 -126 -113
-304 -130 -307 -138 -322 -164 -322 -10 0 -62 19 -117 43 -83 36 -99 47 -102
68 -3 27 241 608 260 621 20 12 26 10 133 -36z m9918 20 c24 -12 46 -33 60
-60 22 -41 22 -41 22 -671 0 -610 -1 -631 -20 -669 -34 -68 -62 -81 -173 -81
-121 0 -162 17 -189 78 -17 39 -18 87 -21 646 -2 402 1 622 8 656 12 60 46 98
100 114 53 15 169 8 213 -13z m-12041 -150 c90 -39 103 -48 106 -70 4 -29
-231 -605 -251 -619 -18 -11 -52 -3 -150 38 -64 27 -89 43 -92 59 -4 13 35
120 110 300 134 321 141 336 159 336 8 0 61 -20 118 -44z m655 -630 c43 -19
229 -97 413 -174 184 -77 443 -185 574 -241 237 -99 239 -100 270 -84 82 43
229 0 293 -85 170 -227 -116 -518 -346 -352 -47 34 -101 112 -101 146 0 19
-49 42 -412 194 -227 96 -474 199 -548 231 -74 32 -138 55 -141 51 -3 -4 -35
-76 -70 -160 -35 -84 -72 -162 -82 -172 -31 -34 -63 -35 -138 -5 -77 30 -104
59 -102 109 1 26 173 452 211 523 16 29 51 53 79 53 12 0 57 -15 100 -34z
m392 -549 c171 -72 298 -131 303 -141 8 -13 3 -35 -18 -85 -60 -143 -64 -151
-93 -151 -26 0 -581 229 -607 251 -21 17 -18 31 26 137 40 96 52 112 80 112 8
0 147 -56 309 -123z"/>
<path d="M382 2910 c-34 -15 -47 -29 -64 -66 -18 -41 -19 -52 -8 -87 15 -50
47 -82 98 -98 37 -11 45 -9 89 12 39 20 51 32 67 71 18 45 19 49 2 92 -31 81
-106 112 -184 76z"/>
<path d="M2563 2870 c-87 -53 -82 -189 8 -236 78 -40 184 15 196 103 15 112
-108 192 -204 133z"/>
<path d="M385 670 c-107 -53 -100 -204 11 -246 43 -16 47 -16 91 2 25 10 54
30 65 44 82 111 -44 262 -167 200z"/>
<path d="M14549 1597 c-53 -28 -104 -92 -120 -150 -7 -23 -12 -77 -11 -120 1
-120 43 -196 137 -246 79 -42 168 -19 242 62 49 53 65 104 66 199 0 90 -18
149 -61 199 -67 78 -168 101 -253 56z"/>
<path d="M7992 1657 c-73 -23 -162 -133 -162 -200 l0 -27 160 0 c157 0 161 1
185 25 30 29 34 98 9 146 -28 55 -116 81 -192 56z"/>
<path d="M2545 674 c-92 -46 -98 -180 -10 -234 90 -55 205 9 205 115 0 100
-106 164 -195 119z"/>
</g>
</svg>
