<svg id="Layer_1" data-name="Layer 1" xmlns="http://www.w3.org/2000/svg" viewBox="0 0 1308 364.59">
  <defs>
    <style>.cls-1, .cls-2 {
      fill: #fff;
    }

    .cls-2 {
      font-size: 295.47px;
      stroke: #fff;
      stroke-miterlimit: 10;
      stroke-width: 4px;
      font-family: MyriadPro-Regular, Myriad Pro;
    }

    .cls-3 {
      letter-spacing: -0.02em;
    }

    .cls-4 {
      letter-spacing: 0em;
    }

    .cls-5 {
      letter-spacing: -0.01em;
    }</style>
  </defs>
  <title>logo_with_title</title>
  <path class="cls-1"
        d="M333.9,34.82c-.67,15.51-9.56,26.56-23.69,30.34a3.49,3.49,0,0,0-2.59,2.24q-18.11,42.09-36.26,84.17c-6.61,15.32-13.21,30.63-19.91,45.9-.94,2.13-1,3.09,1.56,4.1,11.43,4.58,22.74,9.43,34.1,14.18,8.68,3.63,10.93,9.31,7.11,17.89-1.12,2.52-2.23,5.06-3.35,7.59-3.27,7.33-9.2,9.66-16.75,6.51-9.32-3.9-18.61-7.86-27.92-11.78-9.84-4.15-19.69-8.24-29.51-12.44-8.43-3.61-10.56-8.92-7-17.19q19-44.13,38-88.25,13.74-31.87,27.5-63.72a4.39,4.39,0,0,0-.13-4.44,30.35,30.35,0,0,1,7.58-38.69,31.73,31.73,0,0,1,39.56,0C330.06,17.6,333.81,25.92,333.9,34.82Zm-31.47,17a16.65,16.65,0,1,0,.12-33.3c-9.25,0-16.93,7.39-17,16.31A16.73,16.73,0,0,0,302.43,51.79Z"
        transform="translate(0)"/>
  <path class="cls-1"
        d="M.08,307.18c.08-14.9,7.56-25.86,19.84-30.76a6,6,0,0,0,3.65-3.6Q51,207.41,78.63,142.05c.94-2.24.83-3.11-1.63-4.09-11.63-4.58-23.16-9.39-34.73-14.14-7.93-3.26-10.32-9-7-16.78,1.21-2.8,2.4-5.61,3.62-8.4,3.34-7.66,9-9.91,16.85-6.67q22.26,9.14,44.5,18.33c4.62,1.9,9.26,3.76,13.86,5.69,7,2.93,9.45,8.82,6.52,15.85q-6.75,16.22-13.6,32.43Q82,223.91,56.87,283.53a4,4,0,0,0,.29,4.4c9.2,13.26,6.81,29.82-5.76,40.87-11.1,9.74-28.95,9.59-40.59-.38A29.78,29.78,0,0,1,.08,307.18Zm31.25,14.57c9.61,0,16.93-7.48,16.9-17.25,0-8.75-8-16.19-17.17-16.12a16.69,16.69,0,1,0,.27,33.37Z"
        transform="translate(0)"/>
  <path class="cls-1"
        d="M331.22,304.56c.07,16.07-12.12,29.44-28.88,31-15.39,1.4-30-9.14-33-24.41a3.92,3.92,0,0,0-2.66-3.27q-65.43-27.06-130.79-54.27c-2.44-1-3.18-.42-4.08,1.75-4.87,11.61-9.86,23.17-14.85,34.73-3,7-9.14,9.36-16.34,6.38-3.11-1.29-6.21-2.58-9.31-3.91-6.87-2.94-9.29-8.7-6.37-15.67,6.15-14.68,12.43-29.32,18.66-44q2.9-6.85,5.81-13.7c3.36-7.82,9.11-10.14,17-6.86Q204,244.49,281.5,276.68a5.74,5.74,0,0,0,5.16.09C307.23,267.11,331.12,282.06,331.22,304.56Zm-14.4.49c.15-9-7.37-16.94-16.27-17.08-9.67-.16-17.29,7-17.49,16.36s7,16.76,16.75,17.08C308.65,321.69,316.68,314,316.82,305.05Z"
        transform="translate(0)"/>
  <path class="cls-1"
        d="M31.71,0C46.85.4,58.44,9.83,61.91,24.76A4,4,0,0,0,64.61,28q41.16,17.37,82.26,34.87c15.67,6.66,31.34,13.31,46.95,20.12,2.57,1.12,3.66,1,4.81-1.78,4.68-11.27,9.66-22.41,14.48-33.62a13.68,13.68,0,0,1,5.52-6.76c3.54-2.1,7.19-1.69,10.77-.31s6.93,2.88,10.32,4.49c6.28,3,8.59,8.66,5.88,15q-12.73,29.52-25.7,59c-2.92,6.65-9.05,8.77-16.11,5.78-14.79-6.27-29.54-12.61-44.33-18.9q-55.29-23.51-110.58-47a5.25,5.25,0,0,0-4.59.15C22,68.51-1.55,52.1.08,28.14,1.15,12.4,15.56-.41,31.71,0ZM14.46,30.41a16.76,16.76,0,0,0,16.65,17.2A17.11,17.11,0,0,0,48.21,31c.27-9-7.63-16.8-17.08-16.91A16.76,16.76,0,0,0,14.46,30.41Z"
        transform="translate(0)"/>
  <path class="cls-1"
        d="M128.6,7.13c.89.3,2.2.65,3.42,1.17q33.72,14.28,67.41,28.61c5.6,2.38,6.54,4.79,4.16,10.25-2.64,6-5.25,12.05-7.91,18.06-2.08,4.7-4.61,5.71-9.42,3.67q-34.09-14.45-68.19-29c-4.74-2-5.78-4.66-3.76-9.3,2.9-6.64,5.85-13.25,8.74-19.89C124,8.45,125.79,7.42,128.6,7.13Z"
        transform="translate(0)"/>
  <path class="cls-1"
        d="M143,266.64c1,.33,2.3.67,3.54,1.19q34.08,14.16,68.15,28.36c4.67,1.95,5.73,4.47,3.82,9q-4,9.48-8,18.94c-2,4.61-4.54,5.68-9.13,3.78Q167,313.68,132.65,299.41c-4.85-2-5.77-4.42-3.71-9.27q4-9.47,8-18.95A6.71,6.71,0,0,1,143,266.64Z"
        transform="translate(0)"/>
  <path class="cls-1"
        d="M29.94,223.19a9.13,9.13,0,0,1-3.33-.88c-6.39-2.66-12.8-5.26-19.19-7.93-4.67-1.94-5.69-4.36-3.74-9q14.24-34,28.51-68c1.8-4.29,4.69-5.5,9-3.74q9.88,4,19.72,8.16c4.35,1.83,5.39,4.3,3.57,8.62q-14.39,34.26-28.85,68.49C34.62,221.32,33.24,223.21,29.94,223.19Z"
        transform="translate(0)"/>
  <path class="cls-1"
        d="M327.43,131.83c-.36,2.57-1.68,4.93-2.73,7.37Q311.23,170.61,297.64,202c-2.34,5.44-4.58,6.37-10.13,4.05q-9-3.79-18.07-7.64c-5-2.13-6.05-4.61-4-9.42q14.39-33.5,28.84-67c2.29-5.28,4.67-6.19,10-4,6.39,2.69,12.78,5.35,19.16,8C325.91,127.12,327.58,128.8,327.43,131.83Z"
        transform="translate(0)"/>
  <text class="cls-2" transform="translate(450.33 288.73)">
    <tspan class="cls-3">F</tspan>
    <tspan x="138.87" y="0">l</tspan>
    <tspan class="cls-4" x="208.6" y="0">e</tspan>
    <tspan class="cls-5" x="355.74" y="0">x</tspan>
    <tspan x="490.77" y="0">-IO</tspan>
  </text>
</svg>
